<mxfile host="app.diagrams.net" modified="2024-07-16T13:05:14.381Z" agent="Mozilla/5.0 (X11; Linux x86_64) AppleWebKit/537.36 (KHTML, like Gecko) Chrome/126.0.0.0 Safari/537.36" version="24.6.5" etag="UUIkA-ThurRZGPh0ICcG" type="github">
  <diagram name="第 1 页" id="sqIEFOJiWXiW4yiuFP-f">
    <mxGraphModel>
      <root>
        <mxCell id="0" />
        <mxCell id="1" parent="0" />
      </root>
    </mxGraphModel>
  </diagram>
</mxfile>
